{
  "accessors": [
    {
      "bufferView": 2,
      "componentType": 5126,
      "count": 4463,
      "max": [
        0.7888969779014587,
        0.32599401473999023,
        1.9239970445632935
      ],
      "min": [
        -0.7888969779014587,
        -0.23486000299453735,
        -0.0028299998957663774
      ],
      "type": "VEC3"
    },
    {
      "bufferView": 2,
      "byteOffset": 53556,
      "componentType": 5126,
      "count": 4463,
      "max": [
        0.9999988079071045,
        0.9992966651916504,
        0.9999231100082397
      ],
      "min": [
        -0.9999988079071045,
        -0.9999604225158691,
        -0.9994478225708008
      ],
      "type": "VEC3"
    },
    {
      "bufferView": 1,
      "componentType": 5126,
      "count": 4463,
      "max": [
        0.9881680011749268,
        0.995352029800415
      ],
      "min": [
        0.005450000055134296,
        0.006634000223129988
      ],
      "type": "VEC2"
    },
    {
      "bufferView": 0,
      "componentType": 5125,
      "count": 14814,
      "type": "SCALAR"
    }
  ],
  "asset": {
    "extras": {
      "author": "spencer.psi0918 (https://sketchfab.com/spencer.psi0918)",
      "license": "CC-BY-4.0 (http://creativecommons.org/licenses/by/4.0/)",
      "source": "https://sketchfab.com/3d-models/mobile-mega-man-x-dive-copy-x-ultimate-armor-50a04787550248a4b17abeed9dbe9c1f",
      "title": "Mobile - Mega Man X DiVE - Copy X Ultimate Armor"
    },
    "generator": "Sketchfab-12.68.0",
    "version": "2.0"
  },
  "bufferViews": [
    {
      "buffer": 0,
      "byteLength": 59256,
      "name": "floatBufferViews",
      "target": 34963
    },
    {
      "buffer": 0,
      "byteLength": 35704,
      "byteOffset": 59256,
      "byteStride": 8,
      "name": "floatBufferViews",
      "target": 34962
    },
    {
      "buffer": 0,
      "byteLength": 107112,
      "byteOffset": 94960,
      "byteStride": 12,
      "name": "floatBufferViews",
      "target": 34962
    }
  ],
  "buffers": [
    {
      "byteLength": 202072,
      "uri": "scene.bin"
    }
  ],
  "images": [
    {
      "uri": "textures/Copy_X_Ultimate_Armor_baseColor.png"
    },
    {
      "uri": "textures/Copy_X_Ultimate_Armor_metallicRoughness.png"
    }
  ],
  "materials": [
    {
      "doubleSided": true,
      "name": "Copy_X_Ultimate_Armor",
      "pbrMetallicRoughness": {
        "baseColorTexture": {
          "index": 0
        },
        "metallicRoughnessTexture": {
          "index": 1
        },
        "roughnessFactor": 0.8063508326896291
      }
    }
  ],
  "meshes": [
    {
      "name": "Object_0",
      "primitives": [
        {
          "attributes": {
            "NORMAL": 1,
            "POSITION": 0,
            "TEXCOORD_0": 2
          },
          "indices": 3,
          "material": 0,
          "mode": 4
        }
      ]
    }
  ],
  "nodes": [
    {
      "children": [
        1
      ],
      "matrix": [
        1.0,
        0.0,
        0.0,
        0.0,
        0.0,
        2.220446049250313e-16,
        -1.0,
        0.0,
        0.0,
        1.0,
        2.220446049250313e-16,
        0.0,
        0.0,
        0.0,
        0.0,
        1.0
      ],
      "name": "Sketchfab_model"
    },
    {
      "children": [
        2
      ],
      "name": "Copy X (Ultimate Armor).obj.cleaner.materialmerger.gles"
    },
    {
      "mesh": 0,
      "name": "Object_2"
    }
  ],
  "samplers": [
    {
      "magFilter": 9729,
      "minFilter": 9987,
      "wrapS": 10497,
      "wrapT": 10497
    }
  ],
  "scene": 0,
  "scenes": [
    {
      "name": "Sketchfab_Scene",
      "nodes": [
        0
      ]
    }
  ],
  "textures": [
    {
      "sampler": 0,
      "source": 0
    },
    {
      "sampler": 0,
      "source": 1
    }
  ]
}
